G04*
G04 #@! TF.GenerationSoftware,Altium Limited,Altium Designer,21.3.2 (30)*
G04*
G04 Layer_Color=8421504*
%FSLAX25Y25*%
%MOIN*%
G70*
G04*
G04 #@! TF.SameCoordinates,854D5A4D-7B49-4B2E-BA62-70F088FD304A*
G04*
G04*
G04 #@! TF.FilePolarity,Positive*
G04*
G01*
G75*
%ADD13R,0.54921X0.10236*%
%ADD14R,0.02244X0.02441*%
%ADD15R,0.02677X0.02598*%
%ADD16R,0.02362X0.01378*%
%ADD17C,0.00787*%
%ADD18R,0.05906X0.02756*%
%ADD19C,0.00732*%
%ADD20R,0.05512X0.05512*%
%ADD21R,0.02598X0.02677*%
D13*
X35000Y177677D02*
D03*
Y12323D02*
D03*
D14*
X175610Y149500D02*
D03*
X179390D02*
D03*
X175610Y159500D02*
D03*
X179390D02*
D03*
D15*
X175500Y169811D02*
D03*
Y166189D02*
D03*
X112500Y149211D02*
D03*
Y145589D02*
D03*
X201939Y86067D02*
D03*
Y89689D02*
D03*
X202200Y99889D02*
D03*
Y103511D02*
D03*
X202000Y115189D02*
D03*
Y118811D02*
D03*
D16*
X135000Y164441D02*
D03*
Y167000D02*
D03*
D17*
X100000Y139350D02*
D03*
X98425D02*
D03*
X100000Y140925D02*
D03*
X98425D02*
D03*
X100000Y142500D02*
D03*
X98425D02*
D03*
X188925Y161350D02*
D03*
Y162925D02*
D03*
Y164500D02*
D03*
X190500Y161350D02*
D03*
Y162925D02*
D03*
Y164500D02*
D03*
D18*
X80000Y145472D02*
D03*
Y154528D02*
D03*
D19*
X190171Y116311D02*
D03*
X188793D02*
D03*
X190171Y117689D02*
D03*
X188793D02*
D03*
X189860Y87878D02*
D03*
X188482D02*
D03*
X189860Y89256D02*
D03*
X188482D02*
D03*
X190171Y101100D02*
D03*
X188793D02*
D03*
X190171Y102478D02*
D03*
X188793D02*
D03*
D20*
X128819Y150512D02*
D03*
Y141850D02*
D03*
D21*
X94311Y155000D02*
D03*
X90689D02*
D03*
X175028Y89278D02*
D03*
X178650D02*
D03*
X175089Y102500D02*
D03*
X178711D02*
D03*
X175189Y117600D02*
D03*
X178811D02*
D03*
M02*
