G04*
G04 #@! TF.GenerationSoftware,Altium Limited,Altium Designer,21.3.2 (30)*
G04*
G04 Layer_Color=16711935*
%FSLAX25Y25*%
%MOIN*%
G70*
G04*
G04 #@! TF.SameCoordinates,854D5A4D-7B49-4B2E-BA62-70F088FD304A*
G04*
G04*
G04 #@! TF.FilePolarity,Negative*
G04*
G01*
G75*
%ADD31C,0.06084*%
%ADD32C,0.05524*%
%ADD33C,0.07591*%
%ADD34R,0.07591X0.07591*%
%ADD35C,0.03300*%
D31*
X260000Y134744D02*
D03*
Y126870D02*
D03*
Y118996D02*
D03*
Y111122D02*
D03*
Y103248D02*
D03*
Y95374D02*
D03*
Y87500D02*
D03*
Y79626D02*
D03*
Y63878D02*
D03*
D32*
Y71752D02*
D03*
X221524Y12500D02*
D03*
X160500D02*
D03*
X153024Y72500D02*
D03*
X92000D02*
D03*
X221500D02*
D03*
X160476D02*
D03*
X153024Y52500D02*
D03*
X92000D02*
D03*
X221500D02*
D03*
X160476D02*
D03*
X153024Y32500D02*
D03*
X92000D02*
D03*
X221524D02*
D03*
X160500D02*
D03*
X153024Y12500D02*
D03*
X92000D02*
D03*
D33*
X218000Y180000D02*
D03*
Y170000D02*
D03*
Y160000D02*
D03*
Y150000D02*
D03*
Y140000D02*
D03*
Y130000D02*
D03*
Y120000D02*
D03*
Y110000D02*
D03*
Y100000D02*
D03*
X150000Y90000D02*
D03*
Y100000D02*
D03*
Y110000D02*
D03*
Y120000D02*
D03*
Y130000D02*
D03*
Y140000D02*
D03*
Y150000D02*
D03*
Y160000D02*
D03*
Y170000D02*
D03*
X75000Y12500D02*
D03*
Y22500D02*
D03*
Y32500D02*
D03*
Y42500D02*
D03*
Y52500D02*
D03*
Y62500D02*
D03*
Y72500D02*
D03*
Y82500D02*
D03*
Y92500D02*
D03*
X240000Y142500D02*
D03*
Y132500D02*
D03*
Y122500D02*
D03*
Y112500D02*
D03*
Y102500D02*
D03*
Y92500D02*
D03*
Y82500D02*
D03*
Y72500D02*
D03*
Y62500D02*
D03*
D34*
X218000Y90000D02*
D03*
X150000Y180000D02*
D03*
X75000Y102500D02*
D03*
X240000Y52500D02*
D03*
D35*
X171500Y152000D02*
D03*
X168250Y142100D02*
D03*
X171600Y157500D02*
D03*
X171500Y146900D02*
D03*
X175000Y142000D02*
D03*
X209000Y123500D02*
D03*
Y134500D02*
D03*
X202500Y129500D02*
D03*
Y138500D02*
D03*
X196000D02*
D03*
Y129500D02*
D03*
X190000D02*
D03*
Y138500D02*
D03*
X183500D02*
D03*
Y129500D02*
D03*
X177000D02*
D03*
Y138500D02*
D03*
X197600Y159000D02*
D03*
X204000Y181000D02*
D03*
X191500D02*
D03*
X180000D02*
D03*
X202000Y109100D02*
D03*
X202200Y94800D02*
D03*
X201900Y80600D02*
D03*
X170500Y110500D02*
D03*
Y96000D02*
D03*
Y89000D02*
D03*
Y102500D02*
D03*
Y117500D02*
D03*
X222000Y22000D02*
D03*
Y42000D02*
D03*
Y62000D02*
D03*
X55000Y25000D02*
D03*
X47500D02*
D03*
X40000D02*
D03*
X32500D02*
D03*
X25000D02*
D03*
X17500D02*
D03*
X102000Y118000D02*
D03*
Y124000D02*
D03*
Y130000D02*
D03*
X120500Y151000D02*
D03*
X107500D02*
D03*
X100000D02*
D03*
M02*
